# xmcd
#
# Track frame offsets: 
#        150
#        22575
#        55389
#        81265
#        104422
#        139417
#        171319
#        195637
#        226992
#        262157
#        281323
#
# Disc length: 4071 seconds
#
# Revision: 0
# Processed by: cddbd v1.5.2PL0 Copyright (c) Steve Scherf et al.
# Submitted via: ExactAudioCopy v1.0b3
#
DISCID=980fe50b
DTITLE=Larry Garner and Michael Van Merwyk - Upclose And Personnal
DYEAR=2014
DGENRE=Blues
TTITLE0=She’s the boss
TTITLE1=Dreaming again
TTITLE2=The bear
TTITLE3=Blues keeps calling my name
TTITLE4=Road of life
TTITLE5=Bullrider
TTITLE6=Bad Blues
TTITLE7=Ease my pain
TTITLE8=Tale spreaders
TTITLE9=Will love find me again
TTITLE10=Mojo hand
EXTD=
EXTT0=
EXTT1=
EXTT2=
EXTT3=
EXTT4=
EXTT5=
EXTT6=
EXTT7=
EXTT8=
EXTT9=
EXTT10=
PLAYORDER=
